# xmcd
#
# Track frame offsets: 
#        150
#        11676
#        13545
#        22562
#        32710
#        40531
#        48955
#        59915
#        69724
#        79438
#        88613
#        91824
#        105413
#        114821
#        125307
#        134358
#        152298
#        158835
#        166250
#        169755
#        179684
#
# Disc length: 2511 seconds
#
# Revision: 1
# Processed by: cddbd v1.5.2PL0 Copyright (c) Steve Scherf et al.
# Submitted via: ExactAudioCopyFreeDBPlugin 1.0
#
DISCID=f909cd15
DTITLE=The Bluegrass Champs - Live From The Don Owens Show
DYEAR=2018
DGENRE=Bluegrass
TTITLE0=Little Cabin On The Hill
TTITLE1=Don Owens Commentary
TTITLE2=Singing Waterfall
TTITLE3=I Ain't Gettin' Nowhere With You
TTITLE4=Goin' Crazy
TTITLE5=Tequila
TTITLE6=Put My Little Shoes Away
TTITLE7=Dark Hollow
TTITLE8=Rock-A-Bye Boggie
TTITLE9=Steel Guitar Chimes
TTITLE10=Don Owens Commentary
TTITLE11=The Prisoner Song
TTITLE12=Are You Teasing Me
TTITLE13=Pretend
TTITLE14=Dear Old Dixie
TTITLE15=I Can't Stop Loving You
TTITLE16=Scotland
TTITLE17=I Want To Be Loved (But Only By You)
TTITLE18=Don Owens Commentary
TTITLE19=I'll Be True While You're Gone
TTITLE20=No Help Wanted
EXTD=
EXTT0=
EXTT1=
EXTT2=
EXTT3=
EXTT4=
EXTT5=
EXTT6=
EXTT7=
EXTT8=
EXTT9=
EXTT10=
EXTT11=
EXTT12=
EXTT13=
EXTT14=
EXTT15=
EXTT16=
EXTT17=
EXTT18=
EXTT19=
EXTT20=
PLAYORDER=
